# xmcd
#
# Track frame offsets: 
#        150
#        18863
#        46155
#        68712
#        84042
#        106964
#        135998
#        157748
#        176079
#        194491
#
# Disc length: 2790 seconds
#
# Revision: 0
# Processed by: cddbd v1.5.2PL0 Copyright (c) Steve Scherf et al.
# Submitted via: ExactAudioCopy v1.0b6
#
DISCID=6d0ae40a
DTITLE=Jo Swan - Primal Schmaltz
DYEAR=1996
DGENRE=Jazz
TTITLE0=The Great Illusion
TTITLE1=Love Or Money
TTITLE2=Babel
TTITLE3=The Waiting Place
TTITLE4=Again I Forget
TTITLE5=Bury My Heart
TTITLE6=Don't Ask
TTITLE7=Mannish Girl
TTITLE8=From The Beginning
TTITLE9=Love Or Money (Radio Edit)
EXTD=
EXTT0=
EXTT1=
EXTT2=
EXTT3=
EXTT4=
EXTT5=
EXTT6=
EXTT7=
EXTT8=
EXTT9=
PLAYORDER=
